<svg width="298" height="82" viewBox="0 0 298 82" fill="none" xmlns="http://www.w3.org/2000/svg">
<path d="M241.184 79.0045C236.105 80.6895 231.213 81.6255 226.698 81.6255C219.173 81.6255 212.588 79.1917 208.45 74.3242C207.697 73.3881 207.885 72.0776 208.638 71.1415C209.578 70.3926 210.895 70.5799 211.648 71.3287C217.292 77.8812 227.827 78.8173 239.491 74.8858C239.491 75.073 239.491 75.2602 239.491 75.4474C239.491 76.9452 240.244 78.2557 241.184 79.0045Z" fill="#CB6F77"/>
<path d="M283.326 35.5707C282.95 37.0685 282.573 38.379 282.197 39.8767C278.999 49.4246 272.038 58.9726 262.631 66.8356C258.116 70.5799 253.413 73.5753 248.71 76.0091C248.71 75.8219 248.71 75.8219 248.71 75.6347C248.71 74.137 247.957 72.8265 246.828 72.0776C251.155 69.831 255.67 67.0228 259.809 63.4657C268.463 56.1644 275.048 47.3653 277.87 38.5662C278.622 36.3196 279.187 34.2602 279.375 32.3881C280.692 33.3242 282.009 34.4475 283.326 35.5707Z" fill="#FFC900"/>
<path d="M284.078 30.3287C282.573 29.2054 281.068 27.8949 279.563 26.7717C279.187 23.4018 278.058 20.4064 276.177 17.9726C277.494 17.5981 278.622 16.4748 278.999 15.1643C278.999 14.9771 278.999 14.7899 279.187 14.7899C279.375 14.7899 279.375 14.9771 279.375 15.1643C282.761 19.0959 284.266 24.3379 284.078 30.3287Z" fill="#40BDA8"/>
<path d="M272.414 9.92233C271.474 10.484 270.721 11.2328 270.345 12.3561C270.157 12.7306 270.157 13.2922 270.157 13.6666C266.958 12.3561 263.384 11.7945 259.245 11.9817C257.364 10.6712 255.482 9.5479 253.601 8.42462C260.562 7.11411 267.146 7.48854 272.414 9.92233Z" fill="#CB6F77"/>
<path d="M252.66 12.9178C244.759 14.7899 235.917 19.0959 228.015 25.8356C226.51 27.1461 225.005 28.4566 223.5 29.9543C222.559 30.8904 221.242 30.8904 220.302 29.9543C219.361 29.0182 219.361 27.7077 220.302 26.7717C221.807 25.2739 223.5 23.7762 225.193 22.4657C232.342 16.4748 240.056 12.3561 247.581 9.92233C249.086 10.8584 250.779 11.7945 252.66 12.9178Z" fill="#93BA1F"/>
<path d="M227.075 11.6073C226.322 12.5433 225.005 12.7306 224.064 11.9817C215.787 5.42919 206.944 3.36982 200.924 7.11412C197.162 9.36069 194.904 13.4794 194.152 18.9086C193.399 18.347 192.27 18.1598 191.141 18.1598C190.577 18.1598 190.013 18.347 189.636 18.5342C190.577 11.6073 193.587 6.17804 198.479 3.18261C206.192 -1.49776 216.915 0.561606 226.698 8.42462C227.827 9.17348 227.827 10.6712 227.075 11.6073Z" fill="#40BDA8"/>
<path d="M234.223 67.21C232.154 67.9589 230.085 68.3333 227.827 68.3333C217.292 68.3333 205.063 60.0958 196.973 47.178C192.835 40.6255 190.389 33.5114 189.636 26.5844C190.389 26.9589 191.141 27.1461 192.082 26.9589C192.835 26.9589 193.399 26.5844 193.963 26.21C194.716 32.2009 196.973 38.7534 200.548 44.7443C209.014 58.5981 223.124 66.6484 232.53 62.9041C233.659 62.5296 234.976 63.0913 235.352 64.2146C235.917 65.5251 235.352 66.8356 234.223 67.21Z" fill="#FF8000"/>
<path d="M284.078 30.3287C284.078 32.0137 283.702 33.6986 283.326 35.5707C282.197 34.4475 280.88 33.5114 279.375 32.3881C279.563 30.5159 279.751 28.6438 279.563 26.7717C281.068 27.8949 282.573 29.2054 284.078 30.3287Z" fill="#4A25A6"/>
<path d="M259.245 11.9817C257.175 12.1689 254.918 12.3561 252.66 12.9178C250.779 11.7945 249.274 10.6712 247.581 9.92233C249.65 9.36069 251.532 8.79905 253.601 8.42462C255.482 9.5479 257.175 10.6712 259.245 11.9817Z" fill="#FFC900"/>
<path d="M247.581 9.92233C244.006 7.86297 241.184 6.36526 239.115 5.42918C239.491 5.80361 239.867 6.17804 240.244 6.55247C240.996 7.48855 240.996 8.79905 240.244 9.73512C239.491 10.6712 237.986 10.484 237.045 9.73512C233.659 6.17804 231.778 3.55704 233.283 1.31046C234.788 -0.561683 237.422 -0.748898 246.828 4.49311C248.898 5.6164 251.155 6.9269 253.601 8.42462C251.72 8.79905 249.65 9.36069 247.581 9.92233Z" fill="#FFC900"/>
<path d="M279.375 32.2009C275.801 29.2054 271.473 26.0228 266.582 22.4657C261.314 18.7214 256.611 15.5388 252.472 12.9178C254.73 12.3561 256.987 11.9817 259.057 11.9817C262.255 14.2283 265.641 16.4748 269.028 18.9086C272.602 21.5296 276.177 24.1506 279.375 26.5844C279.751 28.4566 279.563 30.3287 279.375 32.2009Z" fill="#FF8000"/>
<path d="M297.247 47.5525C296.683 48.3013 295.931 48.863 294.614 48.863C292.544 48.863 289.534 47.5525 284.643 44.9315C283.514 44.3698 283.138 43.0593 283.702 41.936C284.266 40.8127 285.583 40.4383 286.712 41C288.782 42.1232 290.287 42.8721 291.415 43.2465C289.722 41.3744 286.9 38.7534 283.138 35.3835C283.514 33.6986 283.702 31.8264 283.89 30.1415C286.148 32.0137 288.217 33.6986 289.91 35.3835C298 43.0593 298.753 45.6803 297.247 47.5525Z" fill="#4A25A6"/>
<path d="M194.152 26.3972C193.587 26.7716 192.835 26.9589 192.27 27.1461C191.33 27.1461 190.577 27.1461 189.825 26.7717C188.508 26.0228 187.379 24.7123 187.191 23.2146C187.003 21.3424 188.131 19.4703 189.825 18.7214C190.201 18.5342 190.765 18.347 191.33 18.347C192.458 18.1598 193.399 18.5342 194.34 19.0958C195.468 19.8447 196.221 20.968 196.409 22.4657C196.409 23.9634 195.468 25.4611 194.152 26.3972Z" fill="#4A25A6"/>
<path d="M248.71 75.6347C248.71 75.8219 248.71 75.8219 248.71 76.0091C248.521 78.4429 246.64 80.1278 244.194 80.1278C243.066 80.1278 241.937 79.7534 241.184 79.0045C240.244 78.2557 239.679 76.9452 239.679 75.6347C239.679 75.4474 239.679 75.2602 239.679 75.073C240.056 72.8264 241.937 71.1415 244.194 71.1415C245.135 71.1415 246.076 71.516 246.828 72.0776C247.957 72.8265 248.71 74.137 248.71 75.6347Z" fill="#FF8000"/>
<path d="M278.999 14.7899C278.999 14.9771 278.999 15.1643 278.811 15.1643C278.434 16.4748 277.306 17.5981 275.989 17.9726C275.048 18.347 274.107 18.347 273.167 17.9726C271.285 17.4109 269.968 15.5388 270.157 13.4794C270.157 13.105 270.157 12.5433 270.345 12.1689C270.721 11.0456 271.474 10.2968 272.414 9.73512C273.543 9.17348 274.86 8.98626 276.177 9.36069C278.246 10.2968 279.563 12.5433 278.999 14.7899Z" fill="#93BA1F"/>
<path d="M5.83207 48.1141C4.70328 47.7397 3.76263 47.178 2.82197 46.6164C1.88131 46.0548 1.31692 44.9315 0.752525 43.8082C0.188131 42.6849 0 41.5616 0 40.0639V26.5844C0 26.0228 0.188131 25.4611 0.564394 25.0867C0.940657 24.7123 1.50505 24.5251 2.06944 24.5251C2.63384 24.5251 3.0101 24.7123 3.5745 25.0867C4.13889 25.4611 4.13889 25.8356 4.13889 26.5844V39.8767C4.13889 40.8127 4.32702 41.5616 4.51515 42.3105C4.89141 43.0593 5.26768 43.621 5.83207 43.9954C6.39647 44.557 6.96086 44.9315 7.52525 45.1187C8.08965 45.3059 8.84217 45.4931 9.5947 45.4931C10.3472 45.4931 10.9116 45.3059 11.6641 45.1187C12.2285 44.9315 12.7929 44.557 13.3573 44.1826C13.9217 43.8082 14.298 43.2465 14.6742 42.4977C14.8624 41.7488 15.0505 41 15.0505 40.0639V26.7717C15.0505 26.21 15.2386 25.6484 15.6149 25.2739C15.9912 24.8995 16.5556 24.7123 17.12 24.7123C17.6843 24.7123 18.0606 24.8995 18.625 25.2739C19.1894 25.6484 19.1894 26.0228 19.1894 26.7717V40.2511C19.1894 41.5616 19.0013 42.8721 18.4369 43.9954C17.8725 45.1187 17.3081 46.0548 16.3674 46.6164C15.4268 47.3653 14.4861 47.7397 13.3573 48.1141C12.2285 48.4885 10.9116 48.6758 9.5947 48.6758C8.27778 48.6758 6.96086 48.4885 5.83207 48.1141Z" fill="#373A36"/>
<path d="M25.2096 47.9269C24.8333 47.5525 24.6452 47.178 24.6452 46.6164V27.3333C24.6452 26.5844 24.8333 26.0228 25.2096 25.4611C25.5859 25.0867 26.1503 24.7123 26.7146 24.7123C27.0909 24.7123 27.6553 24.8995 28.0316 25.0867C28.4078 25.2739 28.9722 25.6484 29.1604 26.0228L40.4482 42.1232V26.5844C40.4482 26.0228 40.6364 25.6484 41.0126 25.2739C41.3889 24.8995 41.7652 24.7123 42.3295 24.7123C42.8939 24.7123 43.2702 24.8995 43.6465 25.0867C44.0227 25.4611 44.2109 25.8356 44.2109 26.3972V45.4931C44.2109 46.242 44.0227 46.8036 43.4583 47.3653C43.0821 47.7397 42.5177 48.1141 41.7652 48.1141C41.3889 48.1141 40.8245 47.9269 40.4482 47.7397C39.8838 47.5525 39.5076 47.178 39.3194 46.8036L28.0316 30.8904V46.4292C28.0316 46.9908 27.8434 47.3653 27.4672 47.7397C27.0909 48.1141 26.7146 48.1141 26.1503 48.1141C25.5859 48.1141 25.5859 48.1141 25.2096 47.9269Z" fill="#373A36"/>
<path d="M50.7955 47.7397C50.4192 47.3653 50.2311 46.9908 50.2311 46.242V26.7717C50.2311 26.21 50.4192 25.6484 50.7955 25.2739C51.1717 24.8995 51.7361 24.7123 52.3005 24.7123C52.8649 24.7123 53.2412 24.8995 53.8056 25.2739C54.1818 25.6484 54.37 26.0228 54.37 26.7717V46.242C54.37 46.8036 54.1818 47.3653 53.8056 47.7397C53.4293 48.1141 52.8649 48.3013 52.3005 48.3013C51.7361 48.3013 51.1717 48.1141 50.7955 47.7397Z" fill="#373A36"/>
<path d="M66.4104 47.9269C65.846 47.5525 65.4697 46.8036 65.0934 45.6803L58.697 27.1461C58.697 26.9589 58.697 26.9589 58.697 26.7717C58.697 26.5844 58.697 26.5844 58.697 26.3972C58.697 26.0228 58.8851 25.8356 59.0732 25.4611C59.2614 25.2739 59.4495 24.8995 59.8258 24.8995C60.202 24.7123 60.3901 24.7123 60.7664 24.7123C61.1427 24.7123 61.5189 24.8995 61.8952 25.0867C62.2715 25.2739 62.4596 25.6484 62.6477 26.0228L68.8561 44.1826L75.0644 26.0228C75.0644 25.8356 75.2525 25.6484 75.2525 25.4611C75.2525 25.2739 75.4407 25.2739 75.6288 25.0867C75.8169 24.8995 75.8169 24.8995 76.0051 24.8995C76.1932 24.8995 76.3813 24.7123 76.3813 24.7123C76.5695 24.7123 76.7576 24.7123 76.7576 24.7123C77.322 24.7123 77.6982 24.8995 78.2626 25.2739C78.6389 25.6484 78.827 26.0228 78.827 26.5844C78.827 26.7716 78.827 26.9589 78.6389 27.1461L72.2424 45.6803C71.8662 46.8036 71.4899 47.5525 70.9255 47.9269C70.3611 48.3013 69.6086 48.4885 68.8561 48.4885C68.1035 48.4885 66.9747 48.3013 66.4104 47.9269Z" fill="#373A36"/>
<path d="M82.9659 47.7397C82.5896 47.3653 82.4015 46.8036 82.4015 46.4292V26.9589C82.4015 26.3972 82.5896 26.0228 82.9659 25.6484C83.3422 25.2739 83.7184 25.0867 84.2828 25.0867H96.3232C96.8876 25.0867 97.2639 25.2739 97.452 25.6484C97.6402 26.0228 97.8283 26.3972 97.8283 26.7717C97.8283 27.1461 97.6402 27.5205 97.452 27.8949C97.2639 28.2694 96.8876 28.4566 96.3232 28.4566H86.5404V35.0091H95.7589C96.3232 35.0091 96.6995 35.1963 96.8876 35.3835C97.0758 35.7579 97.2639 36.1324 97.2639 36.5068C97.2639 36.8812 97.0758 37.2557 96.8876 37.6301C96.6995 38.0045 96.3232 38.1917 95.7589 38.1917H86.5404V45.3059H96.6995C97.2639 45.3059 97.6402 45.4931 97.8283 45.8675C98.0164 46.242 98.2046 46.6164 98.2046 46.9908C98.2046 47.3653 98.0164 47.7397 97.8283 48.1141C97.6402 48.4885 97.2639 48.6758 96.6995 48.6758H84.471C83.9066 48.3013 83.3422 48.1141 82.9659 47.7397Z" fill="#373A36"/>
<path d="M103.472 47.7397C103.096 47.3653 102.908 46.9908 102.908 46.242V26.9589C102.908 26.3972 103.096 26.0228 103.472 25.6484C103.848 25.2739 104.413 25.0867 104.977 25.0867H112.314C117.958 25.0867 120.78 27.1461 120.78 31.0776C120.78 32.3881 120.404 33.6986 119.463 34.6347C118.523 35.5707 117.206 36.1324 115.513 36.5068C118.335 37.0685 119.84 38.9406 120.216 41.936L120.78 46.6164C120.78 46.9908 120.592 47.3653 120.404 47.5525C120.028 48.1141 119.463 48.3013 118.899 48.3013C118.335 48.3013 117.958 48.1141 117.394 47.9269C117.018 47.5525 116.641 47.178 116.641 46.6164L116.265 42.3105C116.265 41.5616 116.077 40.8127 115.889 40.2511C115.701 39.6895 115.513 39.315 115.136 38.9406C114.76 38.5662 114.384 38.379 113.819 38.1917C113.255 38.0045 112.691 38.0045 111.938 38.0045H107.235V46.4292C107.235 46.9908 107.047 47.5525 106.67 47.9269C106.294 48.3013 105.73 48.4885 105.165 48.4885C104.413 48.3013 103.848 48.1141 103.472 47.7397ZM110.809 34.8219C111.562 34.8219 112.126 34.8219 112.503 34.8219C112.879 34.8219 113.443 34.6347 114.008 34.6347C114.572 34.4475 114.948 34.2602 115.325 34.073C115.701 33.8858 115.889 33.5114 116.265 32.9497C116.453 32.5753 116.641 32.0137 116.641 31.2648C116.641 30.8904 116.641 30.5159 116.453 30.3287C116.453 29.9543 116.265 29.7671 116.265 29.5799C116.077 29.3927 116.077 29.2054 115.889 29.0182C115.701 28.831 115.513 28.6438 115.325 28.6438C115.136 28.4566 114.948 28.4566 114.76 28.4566C114.572 28.4566 114.196 28.2694 114.008 28.2694C113.819 28.2694 113.631 28.2694 113.255 28.2694C112.879 28.2694 112.691 28.2694 112.503 28.2694C112.314 28.2694 112.126 28.2694 111.75 28.2694H106.859V35.0091H110.809V34.8219Z" fill="#373A36"/>
<path d="M125.107 45.8675C124.919 45.6803 124.919 45.4931 124.919 45.3059C124.919 45.1187 124.919 44.9315 125.107 44.557C125.295 44.3698 125.295 43.9954 125.484 43.8082C125.672 43.621 125.86 43.4338 126.048 43.2465C126.236 43.0593 126.424 43.0593 126.612 43.0593H126.801C126.801 43.0593 126.989 43.0593 126.989 43.2465C129.058 44.557 131.128 45.3059 133.573 45.3059C135.078 45.3059 136.395 45.1187 137.336 44.557C138.277 43.9954 138.841 43.2465 138.841 42.1232C138.841 41.1872 138.653 40.4383 138.088 39.8767C137.524 39.315 136.771 38.9406 135.643 38.5662L130.375 36.8812C128.494 36.3196 127.365 35.5707 126.424 34.6347C125.672 33.6986 125.107 32.3881 125.107 30.8904C125.107 28.831 125.86 27.3333 127.553 26.21C129.246 25.0867 131.316 24.5251 133.761 24.5251C135.266 24.5251 136.771 24.7123 138.277 25.2739C139.782 25.6484 140.91 26.3972 141.663 26.9589C141.851 27.1461 141.851 27.1461 142.039 27.3333C142.039 27.5205 142.227 27.7077 142.227 27.8949C142.227 28.2694 142.039 28.6438 141.851 29.0182C141.475 29.3927 141.287 29.5799 140.722 29.5799C140.534 29.5799 140.158 29.5799 139.97 29.3927C138.088 28.2694 136.207 27.8949 134.326 27.8949C133.385 27.8949 132.444 27.8949 131.692 28.0822C130.939 28.2694 130.375 28.6438 129.811 29.0182C129.246 29.5799 129.058 30.1415 129.058 30.8904C129.058 31.6392 129.246 32.2009 129.622 32.5753C129.999 32.9497 130.563 33.3242 131.504 33.6986L136.583 35.3835C137.336 35.5707 138.088 35.9452 138.653 36.1324C139.217 36.3196 139.782 36.694 140.346 37.0685C140.91 37.4429 141.287 37.8173 141.663 38.379C142.039 38.7534 142.227 39.315 142.415 39.8767C142.604 40.4383 142.604 41.1872 142.604 41.936C142.604 43.4338 142.227 44.557 141.475 45.6803C140.722 46.8036 139.593 47.5525 138.277 48.1141C136.96 48.3013 135.455 48.6758 133.573 48.6758C129.999 48.6758 127.177 47.7397 125.107 45.8675Z" fill="#373A36"/>
<path d="M149.188 45.3059C147.119 43.0593 146.178 40.0639 146.178 36.5068C146.178 34.073 146.554 32.0137 147.495 30.1415C148.436 28.2694 149.753 26.9589 151.446 25.8356C153.139 24.8995 155.208 24.3379 157.654 24.3379C160.1 24.3379 162.169 24.8995 163.862 25.8356C165.556 26.7717 166.872 28.2694 167.813 30.1415C168.754 32.0137 169.13 34.073 169.13 36.5068C169.13 38.9406 168.754 41 167.813 42.8721C166.872 44.7443 165.556 46.0548 163.862 47.178C162.169 48.1141 160.1 48.6758 157.654 48.6758C153.891 48.6758 151.069 47.5525 149.188 45.3059ZM162.734 43.0593C163.862 41.3744 164.615 39.315 164.615 36.5068C164.615 33.6986 164.051 31.6392 162.734 29.9543C161.605 28.2694 159.723 27.5205 157.466 27.5205C155.208 27.5205 153.515 28.2694 152.198 29.9543C151.069 31.6392 150.317 33.6986 150.317 36.5068C150.317 39.315 150.881 41.3744 152.198 43.0593C153.327 44.7443 155.208 45.4931 157.466 45.4931C159.723 45.4931 161.417 44.557 162.734 43.0593Z" fill="#373A36"/>
<path d="M78.6389 81.2511C78.4508 81.0639 78.2626 80.6895 78.2626 80.315V59.7214C78.2626 59.347 78.4508 58.9726 78.6389 58.7854C78.827 58.5981 79.2033 58.4109 79.5795 58.4109H91.2437C91.6199 58.4109 91.8081 58.5981 91.9962 58.7854C92.1843 58.9726 92.3725 59.1598 92.3725 59.5342C92.3725 59.9086 92.1843 60.0959 91.9962 60.2831C91.8081 60.4703 91.6199 60.6575 91.2437 60.6575H80.8965V68.7077H90.6793C91.0556 68.7077 91.2437 68.8949 91.4318 69.0822C91.6199 69.2694 91.8081 69.4566 91.8081 69.831C91.8081 70.2054 91.6199 70.3927 91.4318 70.5799C91.2437 70.7671 90.8674 70.9543 90.6793 70.9543H80.8965V80.6895C80.8965 81.0639 80.7083 81.4383 80.5202 81.6255C80.3321 81.8128 79.9558 82 79.5795 82C79.2033 81.6255 79.0152 81.4383 78.6389 81.2511Z" fill="#373A36"/>
<path d="M99.1452 78.8173C97.2639 76.7579 96.1351 73.7625 96.1351 70.2054C96.1351 66.6484 97.0758 63.6529 99.1452 61.5936C101.027 59.5342 103.66 58.4109 107.047 58.4109C110.433 58.4109 113.067 59.5342 114.948 61.5936C116.83 63.6529 117.958 66.6484 117.958 70.2054C117.958 73.7625 117.018 76.7579 114.948 78.8173C113.067 80.8767 110.433 82 107.047 82C103.66 82 101.027 80.8767 99.1452 78.8173ZM112.879 77.3196C114.384 75.6347 114.948 73.2009 114.948 70.2054C114.948 67.21 114.196 64.7762 112.879 63.0913C111.374 61.4064 109.492 60.4703 107.047 60.4703C104.601 60.4703 102.532 61.4064 101.215 63.0913C99.7096 64.7762 98.9571 67.21 98.9571 70.2054C98.9571 73.2009 99.7096 75.6347 101.215 77.3196C102.72 79.0045 104.601 79.9406 107.047 79.9406C109.492 79.9406 111.374 79.0045 112.879 77.3196Z" fill="#373A36"/>
<path d="M123.414 81.2511C123.226 81.0639 123.038 80.6895 123.038 80.315V60.2831C123.038 59.7214 123.226 59.347 123.414 58.9726C123.79 58.5981 124.167 58.4109 124.543 58.4109C124.919 58.4109 125.107 58.5981 125.484 58.7854C125.86 58.9726 126.236 59.347 126.424 59.7214L138.841 78.0685V59.7214C138.841 59.347 139.029 58.9726 139.217 58.7854C139.405 58.5981 139.782 58.4109 140.158 58.4109C140.534 58.4109 140.722 58.5981 141.099 58.7854C141.287 58.9726 141.475 59.347 141.475 59.7214V79.9406C141.475 80.5023 141.287 80.8767 140.91 81.2511C140.534 81.6255 140.158 81.8128 139.593 81.8128C138.841 81.8128 138.277 81.4383 137.9 80.8767L125.295 62.3424V80.5022C125.295 80.8767 125.107 81.2511 124.919 81.4383C124.731 81.6255 124.355 81.8128 123.979 81.8128C123.79 81.6255 123.602 81.4383 123.414 81.2511Z" fill="#373A36"/>
<path d="M149.564 78.8173C147.683 76.7579 146.554 73.7625 146.554 70.2054C146.554 66.6484 147.495 63.6529 149.564 61.5936C151.446 59.5342 154.08 58.4109 157.466 58.4109C160.852 58.4109 163.486 59.5342 165.367 61.5936C167.249 63.6529 168.378 66.6484 168.378 70.2054C168.378 73.7625 167.437 76.7579 165.367 78.8173C163.486 80.8767 160.852 82 157.466 82C154.08 82 151.446 80.8767 149.564 78.8173ZM163.298 77.3196C164.803 75.6347 165.367 73.2009 165.367 70.2054C165.367 67.21 164.615 64.7762 163.298 63.0913C161.793 61.4064 159.912 60.4703 157.466 60.4703C155.02 60.4703 152.951 61.4064 151.634 63.0913C150.129 64.7762 149.376 67.21 149.376 70.2054C149.376 73.2009 150.129 75.6347 151.634 77.3196C153.139 79.0045 155.02 79.9406 157.466 79.9406C159.912 79.9406 161.981 79.0045 163.298 77.3196Z" fill="#373A36"/>
</svg>
