<svg width="333" height="234" viewBox="0 0 333 234" fill="none" xmlns="http://www.w3.org/2000/svg">
<g clip-path="url(#clip0_21_1092)">
<path d="M256.396 107.073C249.598 109.403 242.901 110.618 236.814 110.618C226.667 110.618 217.84 107.377 212.26 100.691C211.245 99.4753 211.346 97.5506 212.665 96.5376C213.883 95.5247 215.811 95.626 216.825 96.9428C224.334 105.857 238.741 107.174 254.367 101.805C254.265 102.109 254.265 102.312 254.265 102.616C254.265 104.236 255.077 105.958 256.396 107.073Z" fill="white"/>
<path d="M313.215 48.1169C312.809 50.0416 312.2 51.9663 311.591 53.9923C307.229 66.9585 297.894 79.9247 285.211 90.4598C279.225 95.5247 272.833 99.678 266.441 102.818C266.441 102.717 266.441 102.514 266.441 102.413C266.441 100.387 265.426 98.5637 263.904 97.4494C269.789 94.5117 275.674 90.5611 281.356 85.9013C293.125 76.0754 301.851 64.0208 305.91 52.0676C306.924 49.1299 307.533 46.2936 307.939 43.6598C309.867 45.2806 311.591 46.6988 313.215 48.1169Z" fill="white"/>
<path d="M314.229 41.1272C312.302 39.5065 310.272 37.8857 308.142 36.1636C307.736 31.6052 306.112 27.5532 303.474 24.413C305.199 23.8052 306.721 22.4883 307.33 20.5636C307.431 20.361 307.431 20.1584 307.533 19.9558C307.634 20.0571 307.736 20.2597 307.939 20.361C312.505 25.8311 314.635 33.0233 314.229 41.1272Z" fill="white"/>
<path d="M298.503 13.3715C297.285 14.0806 296.271 15.2962 295.763 16.7144C295.56 17.3221 295.459 17.9299 295.459 18.4364C291.197 16.6131 286.226 15.904 280.747 16.2079C278.109 14.4858 275.674 12.865 273.239 11.3455C282.675 9.62344 291.502 10.2312 298.503 13.3715Z" fill="white"/>
<path d="M271.818 17.626C261.063 20.1585 249.293 26.1351 238.64 35.0494C236.509 36.8728 234.48 38.6961 232.552 40.6208C231.335 41.8364 229.508 41.8364 228.291 40.6208C227.175 39.4052 227.175 37.5819 228.291 36.3663C230.32 34.3403 232.552 32.3143 234.784 30.3896C244.423 22.2857 254.874 16.613 265.02 13.3715C267.151 14.6883 269.484 16.1065 271.818 17.626Z" fill="white"/>
<path d="M237.422 15.6C236.408 16.9169 234.48 17.1195 233.262 16.0052C222.101 6.98962 210.129 4.45715 202.012 9.42078C197.04 12.4597 193.895 18.0312 192.88 25.426C191.764 24.7169 190.344 24.3117 188.923 24.5143C188.213 24.6156 187.503 24.8182 186.894 25.1221C188.01 15.7013 192.271 8.5091 198.968 4.45715C209.216 -1.82337 223.826 0.911693 237.016 11.5481C238.234 12.4597 238.437 14.3844 237.422 15.6Z" fill="white"/>
<path d="M247.061 91.0675C244.322 92.1818 241.379 92.587 238.335 92.587C224.131 92.587 207.491 81.5454 196.736 63.8181C191.257 54.9039 187.807 45.1792 186.894 35.961C187.909 36.4675 189.025 36.6701 190.242 36.5688C191.257 36.4675 192.17 36.1636 192.88 35.6571C193.793 43.8623 196.939 52.574 201.91 60.7792C213.376 79.5194 232.248 90.3584 245.032 85.4961C246.554 84.8883 248.279 85.6987 248.888 87.2181C249.496 88.7376 248.583 90.4597 247.061 91.0675Z" fill="white"/>
<path d="M314.229 41.1273C314.128 43.3559 313.824 45.6858 313.215 48.1169C311.591 46.6988 309.867 45.2806 307.939 43.6598C308.345 41.026 308.345 38.4936 308.142 36.1637C310.272 37.8858 312.302 39.5066 314.229 41.1273Z" fill="white"/>
<path d="M280.747 16.3091C277.906 16.5117 274.963 16.9169 271.92 17.626C269.484 16.1065 267.252 14.6883 265.122 13.4728C267.861 12.5611 270.601 11.9533 273.239 11.4468C275.572 12.865 278.109 14.587 280.747 16.3091Z" fill="white"/>
<path d="M265.122 13.4727C260.251 10.6364 256.396 8.6104 253.555 7.29352C253.961 7.80001 254.468 8.30651 254.975 8.9143C256.091 10.1299 256.091 11.9533 254.874 13.0675C253.656 14.1818 251.83 14.1818 250.714 12.9662C246.25 8.20521 243.612 4.55845 245.742 1.62079C247.67 -1.01297 251.323 -1.11427 264.107 5.97664C266.948 7.49612 269.992 9.31949 273.239 11.3455C270.499 11.9533 267.76 12.5611 265.122 13.4727Z" fill="white"/>
<path d="M307.939 43.6597C303.069 39.7091 297.387 35.2519 290.792 30.4909C283.791 25.426 277.399 21.0701 271.818 17.626C274.862 16.9169 277.804 16.4104 280.645 16.3091C285.008 19.2467 289.574 22.387 294.241 25.7299C299.112 29.2753 303.779 32.8208 308.142 36.1636C308.345 38.5948 308.345 41.1273 307.939 43.6597Z" fill="white"/>
<path d="M332.188 64.426C331.377 65.5403 330.261 66.0468 328.739 66.0468C325.999 66.0468 321.839 64.3247 315.244 60.7792C313.824 59.9689 313.215 58.1455 314.027 56.7273C314.838 55.3091 316.563 54.8026 318.085 55.5117C320.825 57.0312 322.854 57.9429 324.376 58.652C322.042 56.1195 318.288 52.4728 313.215 48.0156C313.722 45.5844 314.027 43.2546 314.229 41.026C317.273 43.5585 320.013 45.9896 322.448 48.2182C333.203 58.3481 334.116 61.7922 332.188 64.426Z" fill="white"/>
<path d="M192.88 35.7584C192.069 36.2649 191.155 36.5688 190.242 36.6701C189.025 36.7714 187.909 36.5688 186.894 36.0623C185.068 35.1507 183.647 33.3273 183.444 31.2C183.14 28.5662 184.662 26.1351 186.894 25.0208C187.503 24.7169 188.213 24.5143 188.923 24.413C190.344 24.2104 191.764 24.6156 192.88 25.3247C194.402 26.3377 195.417 27.9584 195.62 29.8831C195.823 32.3143 194.707 34.5429 192.88 35.7584Z" fill="white"/>
<path d="M266.441 102.413C266.441 102.514 266.441 102.717 266.441 102.818C266.238 106.06 263.6 108.491 260.353 108.491C258.831 108.491 257.41 107.883 256.294 106.971C254.975 105.857 254.164 104.236 254.164 102.312C254.164 102.008 254.164 101.704 254.265 101.501C254.671 98.4623 257.208 96.2338 260.353 96.2338C261.672 96.2338 262.991 96.639 264.006 97.4493C265.527 98.5636 266.441 100.387 266.441 102.413Z" fill="white"/>
<path d="M307.533 19.9559C307.533 20.1585 307.431 20.3611 307.33 20.5637C306.721 22.4884 305.199 23.8053 303.474 24.4131C302.257 24.8182 300.938 24.8182 299.619 24.4131C296.981 23.5014 295.357 21.0702 295.459 18.4364C295.459 17.8286 295.56 17.2208 295.763 16.7144C296.271 15.2962 297.285 14.0806 298.503 13.3715C300.025 12.4598 301.851 12.2572 303.576 12.865C306.518 13.878 308.243 16.9169 307.533 19.9559Z" fill="white"/>
<path d="M8.72579 183.047C7.00092 182.54 5.47898 181.73 4.15997 180.717C2.84096 179.704 1.82633 178.387 1.01463 176.665C0.304394 175.044 -0.101456 173.119 -0.101456 171.094V150.935C-0.101456 150.023 0.202932 149.314 0.811707 148.808C1.42048 148.301 2.13072 147.997 2.94242 147.997C3.75412 147.997 4.46436 148.301 5.07313 148.808C5.68191 149.314 5.9863 150.023 5.9863 150.935V170.891C5.9863 172.309 6.18922 173.525 6.69653 174.538C7.20385 175.551 7.81262 176.462 8.62432 177.07C9.43602 177.678 10.2477 178.184 11.2623 178.488C12.1755 178.792 13.1901 178.995 14.3062 178.995C15.3208 178.995 16.3355 178.792 17.3501 178.488C18.3647 178.184 19.1764 177.678 19.9881 177.07C20.7998 176.462 21.4086 175.551 21.9159 174.538C22.4232 173.525 22.6262 172.208 22.6262 170.891V150.935C22.6262 150.023 22.9305 149.314 23.5393 148.808C24.1481 148.301 24.8583 147.997 25.67 147.997C26.4817 147.997 27.192 148.301 27.8007 148.808C28.4095 149.314 28.7139 150.023 28.7139 150.935V171.094C28.7139 173.221 28.3081 175.044 27.5978 176.665C26.7861 178.286 25.7715 179.704 24.4525 180.717C23.1335 181.73 21.6115 182.54 19.8867 183.047C18.1618 183.553 16.3355 183.857 14.4077 183.857C12.4799 183.857 10.4506 183.553 8.72579 183.047Z" fill="white"/>
<path d="M37.8455 182.54C37.3382 182.034 37.0338 181.426 37.0338 180.616V151.745C37.0338 150.631 37.3382 149.72 37.947 149.01C38.5558 148.301 39.3675 147.997 40.2806 147.997C40.8894 147.997 41.5996 148.2 42.3099 148.504C43.0201 148.808 43.6289 149.314 44.0347 149.922L60.979 174.234V150.732C60.979 149.922 61.2834 149.314 61.7907 148.808C62.298 148.301 63.0082 148.099 63.7185 148.099C64.4287 148.099 65.1389 148.301 65.6463 148.808C66.1536 149.314 66.458 149.922 66.458 150.732V179.603C66.458 180.717 66.1536 181.629 65.4433 182.338C64.7331 183.047 64.0229 183.351 63.0082 183.351C62.3995 183.351 61.6892 183.148 60.979 182.844C60.2687 182.54 59.66 182.034 59.2541 181.426L42.6143 157.317V180.616C42.6143 181.426 42.3099 182.034 41.8026 182.54C41.1938 183.047 40.585 183.249 39.8748 183.249C39.1645 183.249 38.3528 183.047 37.8455 182.54Z" fill="white"/>
<path d="M76.2998 182.439C75.691 181.933 75.3867 181.223 75.3867 180.312V150.935C75.3867 150.023 75.691 149.314 76.2998 148.808C76.9086 148.301 77.6188 147.997 78.4305 147.997C79.2422 147.997 79.9525 148.301 80.5613 148.808C81.17 149.314 81.4744 150.023 81.4744 150.935V180.312C81.4744 181.223 81.17 181.933 80.5613 182.439C79.9525 182.946 79.2422 183.249 78.4305 183.249C77.6188 183.249 76.9086 182.946 76.2998 182.439Z" fill="white"/>
<path d="M99.7377 182.642C98.926 182.034 98.2157 180.92 97.7084 179.299L87.968 151.442C87.968 151.239 87.8665 151.138 87.8665 150.935C87.8665 150.732 87.8665 150.631 87.8665 150.53C87.8665 150.023 88.0695 149.517 88.3739 149.112C88.6782 148.707 89.0841 148.403 89.4899 148.2C89.9973 147.997 90.4031 147.896 90.9104 147.896C91.5192 147.896 92.128 148.099 92.6353 148.403C93.1426 148.707 93.5485 149.213 93.7514 149.922L102.984 177.273L112.218 149.922C112.319 149.618 112.42 149.416 112.522 149.213C112.623 149.01 112.826 148.808 113.029 148.605C113.232 148.403 113.435 148.301 113.638 148.2C113.841 148.099 114.044 147.997 114.348 147.997C114.551 147.997 114.856 147.896 115.059 147.896C115.87 147.896 116.58 148.099 117.189 148.605C117.798 149.112 118.102 149.72 118.102 150.53C118.102 150.834 118.001 151.138 117.899 151.442L108.159 179.299C107.652 180.92 106.942 182.034 106.13 182.642C105.318 183.249 104.303 183.553 102.984 183.553C101.665 183.553 100.549 183.249 99.7377 182.642Z" fill="white"/>
<path d="M124.495 182.338C123.886 181.73 123.581 181.021 123.581 180.312V151.036C123.581 150.226 123.886 149.517 124.393 149.01C125.002 148.403 125.611 148.099 126.422 148.099H144.381C145.091 148.099 145.7 148.301 146.106 148.808C146.512 149.314 146.715 149.821 146.715 150.53C146.715 151.138 146.512 151.745 146.106 152.252C145.7 152.758 145.091 152.961 144.381 152.961H129.568V162.888H143.468C144.178 162.888 144.787 163.091 145.193 163.597C145.599 164.104 145.802 164.61 145.802 165.218C145.802 165.826 145.599 166.434 145.193 166.839C144.787 167.345 144.178 167.548 143.468 167.548H129.568V178.387H144.888C145.599 178.387 146.207 178.59 146.613 179.096C147.019 179.603 147.222 180.109 147.222 180.818C147.222 181.426 147.019 182.034 146.613 182.439C146.207 182.945 145.599 183.148 144.888 183.148H126.422C125.814 183.249 125.103 182.945 124.495 182.338Z" fill="white"/>
<path d="M155.238 182.439C154.629 181.933 154.325 181.223 154.325 180.312V151.036C154.325 150.226 154.629 149.517 155.238 148.909C155.846 148.301 156.557 147.997 157.368 147.997H168.326C176.748 147.997 181.009 150.935 181.009 156.912C181.009 158.938 180.4 160.761 179.081 162.179C177.762 163.597 175.835 164.509 173.197 165.016V165.117C177.356 166.029 179.69 168.764 180.197 173.322L181.009 180.21V180.312V180.413V180.514C181.009 181.122 180.806 181.629 180.502 182.034C179.893 182.743 179.183 183.148 178.168 183.148C177.356 183.148 176.646 182.946 176.037 182.439C175.429 181.933 175.023 181.325 174.921 180.514L174.211 173.93C174.11 172.714 173.907 171.701 173.704 170.992C173.501 170.283 173.095 169.574 172.689 169.068C172.182 168.561 171.573 168.156 170.863 167.953C170.051 167.751 169.138 167.649 167.92 167.649H167.819H160.615V180.312C160.615 181.223 160.311 181.933 159.702 182.439C159.093 182.946 158.383 183.249 157.571 183.249C156.557 183.249 155.846 182.946 155.238 182.439ZM166.297 163.091C167.312 163.091 168.123 163.091 168.834 162.99C169.544 162.99 170.254 162.787 171.167 162.584C171.979 162.382 172.689 162.078 173.197 161.774C173.704 161.369 174.11 160.862 174.516 160.255C174.82 159.545 175.023 158.735 175.023 157.823C175.023 157.317 175.023 156.81 174.921 156.405C174.82 156 174.718 155.595 174.516 155.291C174.414 154.987 174.11 154.683 173.907 154.481C173.704 154.278 173.399 154.075 173.095 153.873C172.892 153.67 172.486 153.569 172.182 153.468C171.776 153.366 171.472 153.265 171.167 153.164C170.863 153.062 170.457 153.062 170.051 153.062C169.645 153.062 169.239 153.062 168.935 153.062C168.631 153.062 168.225 153.062 167.819 153.062H167.515H160.615V163.192H166.297V163.091Z" fill="white"/>
<path d="M187.604 179.704C187.401 179.501 187.198 179.197 187.198 178.792C187.198 178.488 187.3 178.083 187.401 177.779C187.604 177.374 187.807 177.07 188.01 176.766C188.213 176.462 188.517 176.158 188.822 175.956C189.126 175.753 189.431 175.652 189.735 175.652C189.836 175.652 189.938 175.652 190.039 175.652C190.141 175.652 190.242 175.753 190.344 175.753C193.388 177.779 196.634 178.893 200.287 178.893C202.519 178.893 204.447 178.488 205.867 177.678C207.288 176.868 207.998 175.551 207.998 173.93C207.998 172.512 207.592 171.397 206.882 170.688C206.07 169.979 204.853 169.27 203.128 168.662L195.315 166.029C192.677 165.117 190.648 164.003 189.431 162.584C188.213 161.166 187.604 159.242 187.604 156.912C187.604 153.873 188.822 151.543 191.257 149.821C193.692 148.099 196.837 147.187 200.693 147.187C203.027 147.187 205.36 147.491 207.491 148.2C209.622 148.909 211.346 149.719 212.463 150.732C212.665 150.935 212.868 151.138 212.97 151.34C213.071 151.543 213.173 151.847 213.173 152.151C213.173 152.758 212.97 153.366 212.463 153.873C212.057 154.379 211.448 154.683 210.839 154.683C210.433 154.683 210.027 154.582 209.622 154.278C206.882 152.657 204.041 151.948 200.997 151.948C199.475 151.948 198.258 152.049 197.142 152.353C196.026 152.657 195.112 153.164 194.402 153.873C193.692 154.582 193.286 155.494 193.286 156.608C193.286 157.722 193.59 158.634 194.199 159.242C194.808 159.951 195.721 160.457 196.939 160.862L204.65 163.293C205.867 163.699 206.882 164.104 207.795 164.509C208.708 164.914 209.52 165.421 210.332 165.927C211.144 166.434 211.752 167.143 212.26 167.751C212.767 168.46 213.173 169.169 213.376 170.08C213.68 170.992 213.782 172.005 213.782 173.119C213.782 175.247 213.173 177.171 212.057 178.691C210.941 180.312 209.317 181.426 207.288 182.236C205.259 183.047 202.824 183.452 200.084 183.452C195.011 183.857 190.75 182.439 187.604 179.704Z" fill="white"/>
<path d="M223.623 178.792C220.579 175.449 219.159 170.992 219.159 165.421C219.159 161.774 219.768 158.532 221.087 155.797C222.406 153.062 224.334 150.935 226.87 149.416C229.407 147.896 232.552 147.086 236.103 147.086C239.654 147.086 242.698 147.896 245.336 149.416C247.873 150.935 249.801 153.062 251.12 155.797C252.439 158.532 253.048 161.774 253.048 165.421C253.048 169.068 252.439 172.309 251.12 175.044C249.801 177.779 247.873 179.906 245.336 181.426C242.8 182.945 239.654 183.756 236.103 183.756C230.827 183.857 226.667 182.135 223.623 178.792ZM244.017 175.348C245.844 172.917 246.757 169.675 246.757 165.522C246.757 161.369 245.844 158.127 244.119 155.696C242.292 153.265 239.654 152.049 236.205 152.049C232.755 152.049 230.117 153.265 228.392 155.696C226.566 158.127 225.754 161.369 225.754 165.522C225.754 169.675 226.667 172.917 228.392 175.348C230.218 177.779 232.755 178.995 236.205 178.995C239.654 178.995 242.191 177.779 244.017 175.348Z" fill="white"/>
<path d="M118.001 232.886C117.595 232.582 117.392 232.075 117.392 231.467V200.267C117.392 199.761 117.595 199.254 117.899 198.951C118.305 198.647 118.711 198.444 119.218 198.444H136.569C137.076 198.444 137.482 198.545 137.786 198.849C138.091 199.153 138.192 199.558 138.192 199.964C138.192 200.47 138.091 200.774 137.786 201.078C137.482 201.382 137.076 201.483 136.569 201.483H121.248V213.74H135.96C136.467 213.74 136.873 213.842 137.177 214.145C137.482 214.449 137.583 214.753 137.583 215.26C137.583 215.665 137.482 216.07 137.177 216.374C136.873 216.678 136.467 216.88 135.96 216.88H121.349V231.569C121.349 232.177 121.146 232.683 120.74 232.987C120.335 233.291 119.929 233.493 119.32 233.493C118.914 233.392 118.407 233.291 118.001 232.886Z" fill="white"/>
<path d="M148.643 229.138C145.7 225.896 144.28 221.642 144.28 216.171C144.28 210.701 145.7 206.345 148.643 203.205C151.585 199.964 155.542 198.444 160.514 198.444C165.485 198.444 169.442 200.065 172.385 203.205C175.327 206.447 176.748 210.701 176.748 216.171C176.748 221.642 175.327 225.997 172.385 229.138C169.442 232.379 165.485 233.899 160.514 233.899C155.542 234 151.585 232.379 148.643 229.138ZM169.341 226.909C171.472 224.275 172.588 220.73 172.588 216.171C172.588 211.613 171.472 207.966 169.341 205.434C167.21 202.8 164.268 201.584 160.514 201.584C156.76 201.584 153.817 202.901 151.686 205.434C149.556 208.067 148.44 211.613 148.44 216.171C148.44 220.73 149.556 224.275 151.686 226.909C153.817 229.543 156.76 230.758 160.514 230.758C164.166 230.758 167.21 229.543 169.341 226.909Z" fill="white"/>
<path d="M185.068 232.987C184.763 232.683 184.56 232.278 184.56 231.67V201.28C184.56 200.47 184.763 199.761 185.169 199.254C185.575 198.748 186.184 198.545 186.894 198.545C187.401 198.545 187.909 198.748 188.416 199.052C188.923 199.356 189.431 199.862 189.836 200.571L208.505 228.125V200.369C208.505 199.761 208.708 199.356 209.013 199.052C209.317 198.748 209.824 198.545 210.332 198.545C210.839 198.545 211.245 198.748 211.651 199.052C212.057 199.356 212.158 199.862 212.158 200.369V230.758C212.158 231.569 211.955 232.278 211.448 232.784C210.941 233.291 210.332 233.493 209.52 233.493C208.505 233.493 207.592 233.088 207.085 232.177L188.111 204.421V231.771C188.111 232.278 187.909 232.784 187.604 233.088C187.3 233.392 186.792 233.595 186.285 233.595C185.778 233.392 185.372 233.291 185.068 232.987Z" fill="white"/>
<path d="M224.334 229.138C221.391 225.896 219.971 221.642 219.971 216.171C219.971 210.701 221.391 206.345 224.334 203.205C227.276 199.964 231.233 198.444 236.205 198.444C241.176 198.444 245.133 200.065 248.076 203.205C251.018 206.447 252.439 210.701 252.439 216.171C252.439 221.642 251.018 225.997 248.076 229.138C245.133 232.379 241.176 233.899 236.205 233.899C231.233 234 227.276 232.379 224.334 229.138ZM245.032 226.909C247.163 224.275 248.279 220.73 248.279 216.171C248.279 211.613 247.163 207.966 245.032 205.434C242.901 202.8 239.959 201.584 236.205 201.584C232.451 201.584 229.508 202.901 227.378 205.434C225.247 208.067 224.131 211.613 224.131 216.171C224.131 220.73 225.247 224.275 227.378 226.909C229.508 229.543 232.451 230.758 236.205 230.758C239.959 230.758 242.901 229.543 245.032 226.909Z" fill="white"/>
</g>
<defs>
<clipPath id="clip0_21_1092">
<rect width="333" height="234" fill="white"/>
</clipPath>
</defs>
</svg>
