<svg width="518" height="485" viewBox="0 0 518 485" fill="none" xmlns="http://www.w3.org/2000/svg">
<g clip-path="url(#clip0_18_160)">
<path d="M258.526 302.994C326.347 302.994 381.327 248.042 381.327 180.256C381.327 112.47 326.347 57.5186 258.526 57.5186C190.704 57.5186 135.724 112.47 135.724 180.256C135.724 248.042 190.704 302.994 258.526 302.994Z" fill="#FF8000"/>
<path d="M193.347 168.948C198.115 168.948 201.98 165.09 201.98 160.331C201.98 155.571 198.115 151.713 193.347 151.713C188.578 151.713 184.713 155.571 184.713 160.331C184.713 165.09 188.578 168.948 193.347 168.948Z" fill="#373A36"/>
<path d="M301.163 168.948C305.931 168.948 309.796 165.09 309.796 160.331C309.796 155.571 305.931 151.713 301.163 151.713C296.395 151.713 292.529 155.571 292.529 160.331C292.529 165.09 296.395 168.948 301.163 168.948Z" fill="#373A36"/>
<path d="M223.463 186.985C223.463 199.612 233.702 209.632 246.15 209.632C258.598 209.632 269.039 199.612 269.039 186.985H223.463Z" fill="#373A36"/>
<path d="M175.678 250.116C163.431 250.116 151.987 249.715 141.547 248.913C89.7465 245.306 82.5186 233.882 81.5147 225.866C80.3101 215.845 90.1481 206.826 112.434 198.008C116.048 196.605 120.064 198.209 121.67 201.816C123.075 205.424 121.469 209.432 117.855 211.035C99.986 218.25 96.3721 223.26 95.7698 224.463C96.9744 225.866 105.005 232.88 146.566 235.486C179.292 237.49 221.455 235.886 265.626 230.876C309.796 226.066 351.357 218.25 382.878 209.231C422.833 197.607 429.057 188.99 429.86 187.386C429.057 186.384 424.238 182.176 403.96 178.969C400.145 178.368 397.535 174.76 398.137 170.952C398.74 167.145 402.353 164.539 406.168 165.14C430.663 168.948 442.709 175.562 443.914 185.783C448.13 224.262 274.46 243.903 267.031 244.705C234.505 248.312 203.184 250.116 175.678 250.116Z" fill="#4A25A6"/>
<path d="M73.681 457.926C114.374 457.926 147.362 424.955 147.362 384.283C147.362 343.611 114.374 310.64 73.681 310.64C32.9881 310.64 0 343.611 0 384.283C0 424.955 32.9881 457.926 73.681 457.926Z" fill="#93BA1F"/>
<path d="M77.6638 347.462C77.6638 372.142 57.5509 392.245 32.8578 392.245C19.9138 392.245 8.36381 386.871 0.199158 378.113C2.98709 344.874 27.8793 317.806 59.9405 311.835C70.694 319.995 77.6638 332.932 77.6638 347.462Z" fill="#CB6F77"/>
<path d="M143.977 406.376C137.206 427.672 121.275 444.789 100.565 452.751C99.1707 448.969 98.5733 444.988 98.5733 440.809C98.5733 421.104 114.703 404.983 134.418 404.983C137.803 405.182 140.99 405.58 143.977 406.376Z" fill="#CB6F77"/>
<path d="M41.3597 377.378C44.2427 377.378 46.5798 375.045 46.5798 372.167C46.5798 369.289 44.2427 366.957 41.3597 366.957C38.4767 366.957 36.1395 369.289 36.1395 372.167C36.1395 375.045 38.4767 377.378 41.3597 377.378Z" fill="#373A36"/>
<path d="M105.809 377.378C108.692 377.378 111.029 375.045 111.029 372.167C111.029 369.289 108.692 366.957 105.809 366.957C102.926 366.957 100.588 369.289 100.588 372.167C100.588 375.045 102.926 377.378 105.809 377.378Z" fill="#373A36"/>
<path d="M74.2868 403.833C68.2636 403.833 63.2442 398.822 63.2442 392.81C63.2442 391.207 64.6496 389.804 66.2558 389.804C67.862 389.804 69.2675 391.207 69.2675 392.81C69.2675 395.616 71.476 397.82 74.2868 397.82C77.0977 397.82 79.3062 395.616 79.3062 392.81C79.3062 391.207 80.7116 389.804 82.3178 389.804C83.924 389.804 85.3295 391.207 85.3295 392.81C85.3295 398.822 80.3101 403.833 74.2868 403.833Z" fill="#373A36"/>
<path d="M425.574 485.098C476.543 485.098 517.862 443.801 517.862 392.859C517.862 341.917 476.543 300.62 425.574 300.62C374.605 300.62 333.287 341.917 333.287 392.859C333.287 443.801 374.605 485.098 425.574 485.098Z" fill="#40BDA8"/>
<path d="M388.701 379.583C392.693 379.583 395.929 376.352 395.929 372.368C395.929 368.383 392.693 365.153 388.701 365.153C384.709 365.153 381.473 368.383 381.473 372.368C381.473 376.352 384.709 379.583 388.701 379.583Z" fill="#373A36"/>
<path d="M478.648 379.583C482.64 379.583 485.876 376.352 485.876 372.368C485.876 368.383 482.64 365.153 478.648 365.153C474.656 365.153 471.42 368.383 471.42 372.368C471.42 376.352 474.656 379.583 478.648 379.583Z" fill="#373A36"/>
<path d="M433.674 407.44C424.037 407.44 416.006 399.624 416.006 389.804C416.006 387.8 417.612 386.196 419.62 386.196C421.628 386.196 423.234 387.8 423.234 389.804C423.234 395.616 428.053 400.426 433.875 400.426C439.698 400.426 444.516 395.616 444.516 389.804C444.516 387.8 446.122 386.196 448.13 386.196C450.138 386.196 451.744 387.8 451.744 389.804C451.343 399.424 443.312 407.44 433.674 407.44Z" fill="#373A36"/>
</g>
<defs>
<clipPath id="clip0_18_160">
<rect width="518" height="485" fill="white"/>
</clipPath>
</defs>
</svg>
