<svg width="248" height="167" viewBox="0 0 248 167" fill="none" xmlns="http://www.w3.org/2000/svg">
<path d="M63.9804 73.3632C84.2196 73.3632 100.627 56.9403 100.627 36.6816C100.627 16.4229 84.2196 0 63.9804 0C43.7411 0 27.334 16.4229 27.334 36.6816C27.334 56.9403 43.7411 73.3632 63.9804 73.3632Z" fill="#40BDA8"/>
<path d="M20.4556 62.3192C8.7593 62.3192 1.80472 59.6371 0.303163 54.5885C-1.98869 46.9366 9.15444 38.9692 18.875 33.6839C20.0605 33.0528 21.483 33.4473 22.1152 34.6306C22.7475 35.8138 22.3523 37.2338 21.1669 37.8648C8.83833 44.649 4.09657 50.4865 4.88686 53.2475C5.51909 55.3773 10.2609 57.7439 21.6411 57.5861C32.5471 57.4284 46.3772 54.9829 60.6025 50.802C74.9068 46.5422 87.8676 41.0203 97.035 35.2616C106.677 29.2664 109.364 24.6121 108.731 22.5611C108.257 20.8256 105.333 19.4846 100.828 18.7746C99.5639 18.538 98.6156 17.3547 98.8527 16.0925C99.0898 14.8304 100.275 13.8837 101.54 14.1204C108.178 15.1459 112.13 17.5125 113.236 21.2201C114.817 26.4265 110.075 32.6584 99.5639 39.2848C90.0014 45.28 76.6454 50.9598 61.946 55.2985C47.2466 59.6371 32.9423 62.1615 21.7201 62.3192C21.325 62.3192 20.8508 62.3192 20.4556 62.3192Z" fill="#FFC900"/>
<path d="M48.2961 26.3476C49.863 26.3476 51.1333 25.0761 51.1333 23.5077C51.1333 21.9393 49.863 20.6678 48.2961 20.6678C46.7292 20.6678 45.459 21.9393 45.459 23.5077C45.459 25.0761 46.7292 26.3476 48.2961 26.3476Z" fill="#373A36"/>
<path d="M83.5246 26.3476C85.0916 26.3476 86.3618 25.0761 86.3618 23.5077C86.3618 21.9393 85.0916 20.6678 83.5246 20.6678C81.9577 20.6678 80.6875 21.9393 80.6875 23.5077C80.6875 25.0761 81.9577 26.3476 83.5246 26.3476Z" fill="#373A36"/>
<path d="M65.9508 37.3126C62.168 37.3126 59.0156 34.2361 59.0156 30.3707C59.0156 29.5819 59.6461 28.9508 60.4342 28.9508C61.2223 28.9508 61.8528 29.5819 61.8528 30.3707C61.8528 32.6584 63.7442 34.5517 66.0297 34.5517C68.3151 34.5517 70.2066 32.6584 70.2066 30.3707C70.2066 29.5819 70.837 28.9508 71.6251 28.9508C72.4132 28.9508 73.0437 29.5819 73.0437 30.3707C72.8073 34.1572 69.7337 37.3126 65.9508 37.3126Z" fill="#373A36"/>
<path d="M192.045 128.583C222.947 128.583 247.999 103.507 247.999 72.5745C247.999 41.6419 222.947 16.566 192.045 16.566C161.142 16.566 136.09 41.6419 136.09 72.5745C136.09 103.507 161.142 128.583 192.045 128.583Z" fill="#FFC900"/>
<path d="M169.901 68.63C172.033 68.63 173.762 66.8995 173.762 64.7647C173.762 62.6299 172.033 60.8993 169.901 60.8993C167.768 60.8993 166.039 62.6299 166.039 64.7647C166.039 66.8995 167.768 68.63 169.901 68.63Z" fill="#373A36"/>
<path d="M209.303 68.63C211.436 68.63 213.165 66.8995 213.165 64.7647C213.165 62.6299 211.436 60.8993 209.303 60.8993C207.17 60.8993 205.441 62.6299 205.441 64.7647C205.441 66.8995 207.17 68.63 209.303 68.63Z" fill="#373A36"/>
<path d="M190.154 83.3028C187.316 83.3028 184.637 82.1984 182.588 80.2263C180.539 78.1752 179.436 75.4931 179.436 72.6533C179.436 71.7067 180.224 70.8389 181.169 70.8389C182.115 70.8389 182.903 71.6278 182.982 72.5744C182.982 74.4676 183.77 76.282 185.11 77.623C186.45 78.9641 188.262 79.6741 190.154 79.6741C194.094 79.6741 197.325 76.4398 197.325 72.4955C197.325 71.5489 198.113 70.6812 199.059 70.6812C200.005 70.6812 200.793 71.47 200.872 72.4166C200.872 78.4119 196.064 83.3028 190.154 83.3028Z" fill="#373A36"/>
<path d="M86.4417 166.448C103.852 166.448 117.966 152.321 117.966 134.894C117.966 117.467 103.852 103.34 86.4417 103.34C69.0316 103.34 54.918 117.467 54.918 134.894C54.918 152.321 69.0316 166.448 86.4417 166.448Z" fill="#FF8000"/>
<path d="M68.7883 134.42C70.3552 134.42 71.6255 133.149 71.6255 131.58C71.6255 130.012 70.3552 128.741 68.7883 128.741C67.2214 128.741 65.9512 130.012 65.9512 131.58C65.9512 133.149 67.2214 134.42 68.7883 134.42Z" fill="#373A36"/>
<path d="M94.7961 134.42C96.363 134.42 97.6333 133.149 97.6333 131.58C97.6333 130.012 96.363 128.741 94.7961 128.741C93.2292 128.741 91.959 130.012 91.959 131.58C91.959 133.149 93.2292 134.42 94.7961 134.42Z" fill="#373A36"/>
<path d="M75.4102 138.443C75.4102 141.52 77.8533 143.965 80.9268 143.965C84.0004 143.965 86.4435 141.52 86.4435 138.443H75.4102Z" fill="#373A36"/>
<path d="M91.9572 106.101C91.9572 113.752 85.8101 119.905 78.1656 119.905C72.4125 119.905 67.5263 116.356 65.3984 111.386C70.9939 106.337 78.3232 103.34 86.4406 103.34C88.2532 103.34 90.0658 103.497 91.7996 103.813C91.8784 104.523 91.9572 105.312 91.9572 106.101Z" fill="#93BA1F"/>
<path d="M71.4678 148.699C71.4678 152.958 69.1824 156.666 65.7148 158.638C59.9617 153.589 56.0212 146.411 55.1543 138.365C56.6517 137.655 58.3067 137.26 60.1193 137.26C66.3452 137.26 71.4678 142.388 71.4678 148.699Z" fill="#CB6F77"/>
<path d="M117.808 137.181C117.335 143.729 114.892 149.724 111.031 154.536C110.558 154.615 110.085 154.615 109.612 154.615C103.701 154.615 98.9727 149.882 98.9727 143.965C98.9727 138.049 103.701 133.316 109.612 133.316C112.922 133.316 115.917 134.815 117.808 137.181Z" fill="#4A25A6"/>
</svg>
